<svg width="140" height="60" viewBox="0 0 140 60" fill="none" xmlns="http://www.w3.org/2000/svg">
<g clip-path="url(#clip0_8_188)">
<path fill-rule="evenodd" clip-rule="evenodd" d="M0.320435 29.2204V30.1602C0.427234 30.3951 0.491314 32.5525 0.555394 33.0651C0.854432 35.4788 1.55931 38.3838 2.49915 40.6052C2.96906 41.7159 3.41762 42.7839 4.0157 43.8305C4.3361 44.3859 4.84874 45.283 5.1905 45.817L7.24105 48.5297H7.30513C7.04881 48.0171 6.70705 47.5472 6.42937 47.0559C6.27985 46.8209 6.10897 46.5646 5.95945 46.3296C5.23321 45.1976 4.48562 43.5956 4.0157 42.3567C3.11858 39.9644 2.41371 37.6148 2.07195 34.838C1.70883 31.869 1.73019 28.9 2.20011 25.995C2.52051 24.0085 3.03314 22.2143 3.71666 20.3773C3.82346 20.0997 3.93026 19.822 4.05842 19.5443C4.40018 18.754 4.7633 17.8782 5.1905 17.1306C5.34001 16.8743 5.46817 16.5966 5.61769 16.3403C5.89537 15.849 6.17305 15.3364 6.49345 14.8451L7.19833 13.7771C7.30513 13.6276 7.34785 13.5422 7.45465 13.414C7.7964 12.9868 8.13816 12.4955 8.50128 12.0897L9.03528 11.4489C9.8256 10.6372 10.5518 9.80419 11.4062 9.05659C12.0043 8.54395 12.7092 7.8818 13.3286 7.4546C14.0335 6.96332 14.6957 6.45068 15.4433 6.02348L17.7288 4.74189L19.3735 4.01565C19.6298 3.90885 19.9288 3.78069 20.2065 3.67389C20.8046 3.43893 21.3813 3.2467 21.9794 3.07582C22.8765 2.79814 23.8804 2.54182 24.8203 2.37094C25.0125 2.32822 25.1834 2.30686 25.3543 2.2855C25.5038 2.26414 25.696 2.26414 25.8242 2.22142C25.4611 2.4991 25.0339 2.73406 24.6067 2.99038C24.2008 3.22534 23.795 3.52437 23.3891 3.78069L22.5134 4.42149C22.4707 4.46421 22.4066 4.50693 22.3639 4.54965C21.958 4.84869 21.5522 5.23317 21.1891 5.59629C21.0609 5.72445 21.0182 5.72444 20.89 5.83124L19.822 6.77108C19.6298 6.94196 19.523 7.11284 19.3521 7.28372L17.5152 9.35563C17.4511 9.41971 17.4511 9.44107 17.4084 9.50515L16.4472 10.7867C16.02 11.3635 15.6355 12.0043 15.251 12.6237C14.8665 13.2218 14.1189 14.5461 13.8413 15.1869C13.7345 15.4218 13.649 15.6141 13.5422 15.8704C13.1364 16.8102 12.7946 17.7928 12.4529 18.7754C12.3033 19.2239 12.1965 19.7365 11.9829 20.1424C11.9616 20.1851 11.9616 20.1851 11.9402 20.2278C10.8509 20.1637 9.1848 19.3094 8.30904 18.7113C7.9032 18.4336 7.49737 18.1559 7.13425 17.8569C7.00609 17.7501 6.70705 17.451 6.57889 17.451C6.62161 17.6006 6.68569 17.6646 6.77113 17.7714C6.87793 17.8996 6.89929 17.9637 7.00609 18.0918C7.86048 19.0958 9.05664 19.8006 10.2528 20.3773C10.4878 20.4841 10.7441 20.6337 11.0004 20.7191C11.1926 20.7832 11.6198 20.9327 11.7693 21.0395C11.7693 21.2531 11.6625 21.6589 11.5985 21.9153C11.4276 22.8337 11.2994 23.6881 11.1713 24.628C11.0858 25.2901 11.0645 25.9096 11.0004 26.5717C10.9577 27.1484 11.0431 28.0669 10.9577 28.6009C10.5518 28.5368 9.9324 28.2164 9.54792 28.0456C7.41193 27.0203 7.45465 26.7426 5.93809 25.76C5.93809 26.0591 6.36529 26.3795 6.57889 26.529L7.00609 26.8921C7.34785 27.1912 7.81776 27.6184 8.2236 27.8747C8.71488 28.1951 8.92848 28.3873 9.54792 28.7291L11.0004 29.4553C11.0218 30.3524 11.214 32.403 11.3421 33.3001C11.513 34.6458 11.7053 35.5429 11.9829 36.8245L11.4489 36.675C11.5557 36.9099 11.9616 36.9313 12.0684 37.1449C12.1325 37.2944 12.2606 37.7643 12.3247 37.9566C13.115 40.2634 13.9053 41.4809 15.1869 43.4247L17.686 46.65C17.7715 46.7355 17.8783 46.7568 17.9424 46.8636C17.9637 46.6714 17.7501 46.4578 17.6433 46.3296C17.3016 45.8384 16.9384 45.3044 16.6608 44.7704C16.4685 44.4073 16.2336 44.0441 16.0413 43.681C15.6355 42.9334 15.251 42.2072 14.9093 41.4169C14.717 41.011 14.5675 40.6265 14.418 40.1993C14.1617 39.3877 13.7985 38.4692 13.5636 37.6362L14.9093 37.9993C18.0919 38.8323 20.6337 39.0886 23.9445 38.7042C24.2649 38.6614 25.1834 38.4906 25.4183 38.5119C25.5038 38.6614 25.5892 38.7896 25.6533 38.9178C25.2902 38.9605 24.8203 39.0886 24.4144 39.1527C23.56 39.2595 22.6843 39.409 21.8085 39.4304C21.5735 39.4304 21.3386 39.4518 21.0823 39.4304C20.9114 39.4304 20.5269 39.345 20.3988 39.4731C20.6551 39.644 22.7483 39.644 23.2183 39.6226C23.6455 39.6013 24.1795 39.5586 24.6067 39.5372C25.0339 39.5158 25.5251 39.409 25.931 39.3877C26.1232 39.4304 27.2339 41.3741 27.7038 41.5237C27.533 41.0751 27.2339 40.7547 27.0203 40.3916L26.3155 39.345C27.8961 39.0032 28.9641 38.7896 30.4806 38.1915C30.9292 38.0206 31.271 37.8498 31.6981 37.6575C32.7021 37.2303 33.5992 36.6322 34.5604 36.0555C34.8808 35.8633 35.8206 35.0516 36.0983 34.9662C36.141 35.5642 36.2478 36.2691 36.3119 36.9099C36.3546 37.5294 36.4614 38.2342 36.4614 38.875C36.7391 38.8537 36.9313 38.6828 37.0808 38.5333C37.5294 38.1702 37.7857 38.2129 37.8284 37.8284C37.9352 36.8886 38.1275 35.9487 38.2984 35.0089C38.3838 34.5603 38.5333 33.8554 38.5333 33.4069C38.5974 33.3001 38.6828 33.3001 38.7896 33.236C39.7508 32.6807 40.9897 31.6127 41.7587 30.8437C42.2286 30.3738 43.7024 28.7718 42.5703 28.4514C41.2033 28.0456 39.2382 29.8398 38.277 30.5874C38.1275 30.6942 36.9527 31.6767 36.8672 31.6767C36.7604 31.6981 34.8594 31.4418 34.6885 31.4204C34.2186 31.3563 33.7701 31.2495 33.3001 31.1641C32.9584 31.1 32.1681 30.9505 31.869 31.0146C31.5913 31.0787 31.036 31.5059 30.9933 31.7408L32.8943 32.5525C33.3642 32.7661 34.3681 33.236 34.8381 33.3215C34.7099 33.5351 34.0691 34.005 33.8555 34.1545C33.6846 34.2826 33.0225 34.8166 32.8302 34.8594C32.5525 34.9448 32.4244 34.6885 32.0826 34.7953C31.8049 34.9021 30.7583 35.607 30.4593 35.7778C29.2418 36.5254 26.8922 37.5721 25.4397 37.807C25.397 37.6575 25.3115 37.508 25.2261 37.3798C25.1193 37.209 25.1193 37.1449 25.0552 36.9526C24.9698 36.675 24.8203 36.3546 24.7135 36.0982C24.4785 35.5429 24.2222 34.9662 24.0086 34.3895C23.795 33.8555 22.8979 31.3563 22.9406 30.6728C22.9406 30.5874 24.5212 30.3951 24.7348 30.3524C25.2902 30.2456 25.8669 30.1175 26.4009 29.9893C28.8146 29.3699 31.7622 28.1737 33.7914 26.6785C34.2827 26.3154 34.7313 25.9096 35.2012 25.5251C35.6284 25.1833 36.3333 24.4998 36.7391 24.2435C36.8672 24.1581 36.974 23.9658 37.0808 23.8377C37.1876 23.7309 37.209 23.6881 37.3158 23.5813C37.6789 23.2823 37.9566 22.8765 38.277 22.492C39.046 21.5735 39.7508 20.5482 40.3489 19.4802L41.0324 18.1346C41.2247 17.7928 41.5023 17.0452 41.6091 16.6394L41.5451 16.7034C41.3101 16.9811 40.2635 18.8608 40.0926 19.1598C39.7936 19.6725 39.4091 20.1424 39.0673 20.6123L38.4052 21.424C37.6362 22.4065 36.3332 23.5173 35.3293 24.3076C34.9449 24.6066 34.6458 24.9056 34.2186 25.162C34.0264 25.2901 33.8341 25.4183 33.6205 25.5678C33.4497 25.696 33.2147 25.8455 33.0225 25.9523C31.7195 26.7212 30.4379 27.298 28.9641 27.8106C28.3233 28.0242 23.6455 29.4126 22.727 29.3699C22.6415 29.3699 22.6843 29.3699 22.6415 29.3485C22.2143 28.7077 21.9794 23.1328 22.1716 21.9793C22.492 21.9793 22.8124 21.9153 23.1115 21.8725C25.0339 21.6162 27.2126 21.1249 28.9641 20.3987C30.1602 19.9074 31.3778 19.3734 32.5098 18.6899C33.3215 18.1986 34.0905 17.6646 34.8381 17.0879C35.2653 16.7462 35.6925 16.3403 36.0983 15.9558C36.5468 15.5286 36.7604 15.4859 37.1449 14.9306C37.2944 14.7383 37.4867 14.5675 37.6576 14.3752C37.8284 14.183 37.9993 14.0121 38.1702 13.8199L38.6188 13.2431C38.7042 13.1363 38.7469 13.0509 38.8324 12.9227C39.1314 12.4955 39.4304 12.0897 39.6868 11.6625L40.6266 9.99643C40.7548 9.74011 40.8615 9.54787 40.9897 9.29155L41.6091 7.86044C41.481 7.90316 40.9043 8.97115 40.8402 9.07795C40.2635 10.1246 39.9004 10.5731 39.2596 11.4916C38.7469 12.2179 37.5508 13.649 36.91 14.2043L36.2478 14.781C36.1837 14.8238 36.1624 14.8665 36.0983 14.9092L34.1332 16.4044C32.3176 17.7928 29.434 18.9676 27.2766 19.6084C25.931 20.0142 24.5853 20.3133 23.1969 20.5269C22.9406 20.5696 22.5561 20.6337 22.2998 20.6337C22.3425 20.4201 22.3639 20.1851 22.3852 19.9715C22.5561 18.5618 22.8765 17.152 23.2183 15.785C23.4105 15.0374 23.6668 14.3111 23.9231 13.6063C24.628 11.5771 25.6106 9.65467 26.7426 7.83908C27.4902 6.64292 28.2806 5.55357 29.1563 4.52829C29.2204 4.44285 29.2631 4.37877 29.3058 4.31469L31.2496 2.32822C31.5486 2.02918 31.5914 1.81558 32.1681 1.8583C34.6031 2.09326 36.974 2.6059 39.1955 3.43893C40.8616 4.07973 42.5276 4.80597 44.0655 5.7458L44.9413 6.30116C45.6462 6.8138 46.3511 7.26236 47.0346 7.79636C47.1414 7.8818 47.3336 8.03132 47.4404 8.0954C48.6152 9.07795 49.7259 10.1246 50.7298 11.2567L51.0502 11.6411C51.4988 12.1538 51.9687 12.6451 52.3532 13.2004C52.5454 13.4567 52.7377 13.7344 52.9513 14.0335C53.5493 14.8451 54.1047 15.785 54.6173 16.6607C55.5572 18.2841 56.6679 20.9754 57.1378 22.7269C57.6932 24.7775 58.2272 27.2339 58.3126 29.4553C58.334 30.1175 58.398 30.801 58.398 31.4845C58.398 31.869 58.398 32.4884 58.3553 32.8729C58.2272 34.1758 58.1631 35.4361 57.9068 36.7177C57.8427 36.9954 57.6932 37.7002 57.7145 37.9566C58.334 37.5721 58.8252 34.5176 58.9961 33.1292C59.3379 30.5019 58.8252 24.8843 58.2058 22.3852C57.8 20.7832 57.0737 18.6258 56.3902 17.1093C56.0057 16.2762 55.5785 15.5073 55.1727 14.7383C55.0659 14.5247 54.9377 14.3539 54.8309 14.1616C54.7455 13.9907 54.6173 13.7985 54.5105 13.6063C54.1261 13.0082 53.1435 11.5771 52.6522 11.0217L51.4561 9.59059C51.2638 9.41971 51.1784 9.29155 51.0289 9.12067C50.8794 8.94979 50.7726 8.84299 50.6017 8.67211L48.7434 6.94196C47.953 6.25844 47.5045 5.9594 46.7569 5.38269C46.1588 4.93413 44.1083 3.60981 43.5102 3.31077C40.6693 1.83694 37.4012 0.683505 34.1545 0.213587C33.6633 0.149507 33.0865 0.0640678 32.5739 0.021348C32.3389 -1.19433e-05 31.0146 -0.0640917 30.9292 -0.106812H28.1951C28.1097 -0.0640917 26.764 -1.19433e-05 26.529 0.021348C25.9951 0.0854277 25.5038 0.149507 24.9698 0.234947C23.0901 0.533986 21.1036 1.1107 19.3521 1.7515C18.7327 1.98646 17.5152 2.47774 16.853 2.79814C16.4258 3.01174 16.0627 3.20398 15.6569 3.41757C14.8665 3.84477 13.6704 4.59237 12.9228 5.14773C12.7519 5.27589 12.581 5.38269 12.4101 5.51085L10.445 7.09148C10.1246 7.3478 9.78288 7.6682 9.5052 7.94588C8.7576 8.69347 8.01 9.44107 7.32649 10.2527C6.94201 10.7227 6.70705 11.0003 6.34393 11.4916C6.27985 11.5771 6.21577 11.6411 6.17305 11.7266C5.51089 12.6023 4.93418 13.4781 4.35746 14.4179C2.86226 17.0879 1.21755 21.5094 0.811713 24.3717C0.747633 24.8843 0.662193 25.4183 0.598113 25.9309C0.512674 26.5076 0.469954 26.9348 0.405874 27.5116C0.384514 27.7892 0.384514 29.0922 0.320435 29.2204ZM13.7131 20.6977C13.7558 19.9929 14.6743 17.8782 15.0161 17.1093L15.6569 15.785C15.7637 15.5714 15.8918 15.3578 15.9986 15.1442C16.3404 14.4393 17.0025 13.3286 17.4511 12.6664C18.0278 11.7693 18.1987 11.5984 18.8395 10.8508L19.1385 10.4663C19.288 10.2955 19.4376 10.1459 19.6084 9.95371L20.7619 8.65075C21.1677 8.18084 22.3852 7.17692 22.5134 6.98468L24.7135 5.29725C24.9057 5.16909 25.0979 5.01957 25.2902 4.89141C25.696 4.61373 27.2766 3.56709 27.7466 3.46029C27.6611 3.63117 27.5116 3.78069 27.3834 3.90885C26.7426 4.65645 26.2941 5.33997 25.7387 6.10892C23.8377 8.73619 22.2998 12.5383 21.5735 15.7209C21.3813 16.5966 21.2318 17.4083 21.0823 18.2841C20.9541 19.0103 20.826 20.6764 20.7619 21.0181C20.5483 21.0822 19.9929 21.1463 19.758 21.1463L18.7327 21.1677C18.156 21.1677 16.4472 21.0609 15.8918 20.9968L13.7131 20.6977ZM12.4742 29.0708C12.4742 27.6611 12.5597 26.4008 12.7305 25.0979C12.8373 24.2862 13.0296 23.1969 13.2218 22.4279C13.2645 22.2997 13.3927 21.6589 13.4995 21.6162C13.6277 21.5735 14.8879 21.8939 15.1869 21.9366C16.2122 22.1289 17.8142 22.2357 18.8395 22.2357C19.5016 22.2357 20.0997 22.1929 20.7192 22.2357C20.7832 23.5813 20.7832 24.9056 20.9541 26.1445C21.5522 30.2456 21.9367 29.5621 20.9755 29.6689C19.9716 29.7757 17.6647 29.8184 16.7676 29.7757C15.3578 29.7116 13.7985 29.4767 12.4742 29.0708ZM12.4742 29.9893C12.7092 30.0107 13.2859 30.1602 13.5209 30.2456C15.1869 30.7155 17.622 31.0787 19.3521 30.9505C19.7793 30.9291 20.1852 30.9078 20.6337 30.8864C21.0396 30.8651 21.4881 30.8223 21.9153 30.8651L22.5775 32.7234C22.6843 33.0438 22.8124 33.3428 22.9406 33.6419C23.0687 33.9623 23.1755 34.2613 23.3037 34.5603C23.7736 35.607 24.094 36.1623 24.5853 37.1235C24.7348 37.4012 24.9271 37.6575 25.0552 37.9352C24.7775 38.1061 23.2183 38.277 22.7483 38.3197C19.6939 38.6187 16.7035 38.2983 13.8413 37.3798C13.6063 37.2944 13.5209 37.3371 13.4568 37.0808C13.0723 35.4574 12.8801 34.1758 12.6665 32.5098C12.5597 31.7408 12.4742 30.8223 12.4742 29.9893ZM26.0805 38.8537C26.0164 38.7469 25.8883 38.5333 25.8455 38.4265C27.1271 38.0634 27.6825 38.0206 29.0068 37.4439C29.4981 37.2303 29.968 37.0167 30.4379 36.8031C30.9078 36.5895 31.1214 36.3118 31.57 36.3546C31.8049 36.3759 31.869 36.3973 31.8477 36.6109C31.6982 36.675 31.6341 36.6536 31.5059 36.739C31.4205 36.8031 31.335 36.8886 31.2282 36.9526L29.8826 37.6575C28.5369 38.1915 27.5757 38.5546 26.0805 38.8537Z" fill="white"/>
<path fill-rule="evenodd" clip-rule="evenodd" d="M74.5888 17.2161V24.8629C76.853 22.9405 79.1812 20.3346 83.9445 20.5055C88.131 20.655 91.2923 22.9405 92.9584 25.5678C100.285 37.0808 84.8202 49.1492 75.4005 39.2168C72.3033 35.9487 72.581 33.471 72.6024 27.832C72.6024 18.5618 72.5169 9.2702 72.6024 0L66.5789 3.82342C66.4293 13.3072 66.0235 31.6768 67.0701 35.7565C69.2061 44.0441 78.5618 51.99 89.7544 47.6753C97.5935 44.6422 104.215 34.2827 98.8751 23.9658C94.6885 15.9345 84.5639 11.513 74.5888 17.2161Z" fill="white"/>
<path fill-rule="evenodd" clip-rule="evenodd" d="M139.373 47.8463V42.2713C125.255 42.0577 127.583 44.984 127.604 21.1464H139.373V15.2938L127.604 15.2724V7.02747L121.687 11.5344C121.581 19.7153 121.773 27.8747 121.73 36.0556C121.645 48.5084 127.946 47.9103 139.373 47.8463Z" fill="white"/>
<path fill-rule="evenodd" clip-rule="evenodd" d="M102.763 48.2307H108.743V34.4963C108.743 29.498 108.615 28.0242 111.285 24.8629C113.357 22.4279 115.45 21.3599 119.616 21.0182L119.722 15.251C112.887 15.251 112.417 16.1267 108.402 19.5016L108.316 15.251H102.741L102.763 48.2307Z" fill="white"/>
<path d="M3.97294 54.2541V53.9765C3.97294 53.5279 3.48166 52.9939 2.60591 52.9939C0.939834 52.9939 -0.0213623 54.3182 -0.0213623 55.7066C-0.0213623 57.33 1.11071 58.4407 2.49911 58.4407C3.41758 58.4407 3.95158 57.9708 3.95158 57.4795V57.2659H3.90886C3.63118 57.5863 3.20398 57.7785 2.64863 57.7785C1.55927 57.7785 0.704875 57.0309 0.704875 55.5784C0.704875 54.4464 1.47383 53.6561 2.60591 53.6561C3.07583 53.6561 3.60982 53.8056 3.90886 54.2541H3.97294Z" fill="white"/>
<path d="M7.6896 56.3688C7.6896 57.1804 7.30512 57.7785 6.60024 57.7785C5.78856 57.7785 5.31865 57.1804 5.31865 56.2193C5.31865 55.3649 5.7672 54.8095 6.42936 54.8095C7.2624 54.8095 7.6896 55.3435 7.6896 56.3688ZM8.41583 56.1979C8.41583 54.959 7.64688 54.126 6.53616 54.126C5.36137 54.126 4.61377 54.9804 4.61377 56.3474C4.61377 57.5863 5.44681 58.4407 6.53616 58.4407C7.66824 58.4407 8.41583 57.6076 8.41583 56.1979Z" fill="white"/>
<path d="M12.8373 58.3766V55.9629C12.8373 54.7241 12.1965 54.126 11.1712 54.126C10.1032 54.126 9.39832 54.8095 9.39832 55.9843V57.8853C9.39832 58.2057 9.56919 58.3766 9.82551 58.3766H10.0818V56.0057C10.0818 55.1513 10.445 54.8095 11.0644 54.8095C11.812 54.8095 12.1324 55.1513 12.1324 56.0057V57.928C12.1324 58.2484 12.2819 58.398 12.5809 58.398H12.8373V58.3766Z" fill="white"/>
<path d="M16.7675 57.1164C16.7675 56.5396 16.3617 56.1552 15.5286 55.9843C14.6742 55.7921 14.5033 55.6853 14.5033 55.4076C14.5033 55.0658 14.781 54.8095 15.4859 54.8095C15.9772 54.8095 16.4257 55.0231 16.618 55.2367H16.6607V54.9163C16.6607 54.4037 16.0626 54.126 15.4432 54.126C14.3965 54.126 13.7985 54.7668 13.7985 55.4289C13.7985 56.0484 14.1616 56.326 14.9519 56.4756C15.9131 56.6678 16.0413 56.8173 16.0413 57.1591C16.0413 57.5649 15.7636 57.7572 15.1441 57.7572C14.6101 57.7572 14.1402 57.5436 13.9053 57.2872H13.8625V57.5863C13.8625 58.0776 14.4179 58.4193 15.1228 58.4193C16.084 58.4407 16.7675 57.9921 16.7675 57.1164Z" fill="white"/>
<path d="M20.6978 56.3688C20.6978 57.1804 20.3133 57.7785 19.6084 57.7785C18.7967 57.7785 18.3268 57.1804 18.3268 56.2193C18.3268 55.3649 18.7754 54.8095 19.4375 54.8095C20.2706 54.8095 20.6978 55.3435 20.6978 56.3688ZM21.424 56.1979C21.424 54.959 20.6551 54.126 19.5443 54.126C18.3695 54.126 17.6219 54.9804 17.6219 56.3474C17.6219 57.5863 18.455 58.4407 19.5443 58.4407C20.6764 58.4407 21.424 57.6076 21.424 56.1979Z" fill="white"/>
<path d="M24.3075 57.9922V57.7573H23.8376C23.4531 57.7573 23.1755 57.6077 23.1755 57.0951V53.3144C23.1755 52.9513 22.9619 52.759 22.6842 52.759H22.4706V57.1592C22.4706 57.9922 22.9191 58.398 23.7308 58.398C24.1153 58.398 24.3075 58.2699 24.3075 57.9922Z" fill="white"/>
<path d="M26.6999 57.9922V57.7572H26.4008C26.0164 57.7572 25.76 57.5864 25.76 57.0737V54.7669C25.76 54.4037 25.5037 54.2115 25.2688 54.2115H25.0552V57.1805C25.0552 58.0136 25.4824 58.4194 26.294 58.4194C26.529 58.4194 26.6999 58.2485 26.6999 57.9922ZM25.8882 53.1435C25.8882 52.8872 25.6746 52.6522 25.4183 52.6522C25.162 52.6522 24.927 52.8872 24.927 53.1435C24.927 53.3998 25.1406 53.6348 25.4183 53.6348C25.6746 53.6348 25.8882 53.3998 25.8882 53.1435Z" fill="white"/>
<path d="M30.3097 56.3689C30.3097 57.3941 29.968 57.8 29.2204 57.8C28.4728 57.8 27.9601 57.1378 27.9601 56.3048C27.9601 55.3649 28.366 54.8096 29.0922 54.8096C30.0961 54.7882 30.3097 55.5999 30.3097 56.3689ZM31.036 56.1766V53.3571C31.036 52.9726 30.8651 52.7804 30.502 52.7804H30.3311V54.9377C30.0534 54.361 29.5835 54.1261 29.0708 54.1261C27.9174 54.1261 27.2552 54.9164 27.2552 56.3475C27.2552 57.5009 28.131 58.4621 29.1563 58.4621C30.4592 58.4408 31.036 57.7573 31.036 56.1766Z" fill="white"/>
<path d="M34.539 56.9455C34.539 57.5436 34.2827 57.7999 33.6419 57.7999C33.1079 57.7999 32.7448 57.5222 32.7448 57.1377C32.7448 56.6678 33.1293 56.4115 33.9623 56.4115H34.539V56.9455ZM35.2225 57.0096V55.7066C35.2225 54.7027 34.6672 54.1473 33.5992 54.1473C32.6594 54.1473 32.1681 54.6386 32.1681 55.0231V55.3649H32.2108C32.4458 55.0231 32.9157 54.7881 33.5351 54.7881C34.2186 54.7881 34.5177 55.0445 34.5177 55.6425V55.8348H33.9623C32.7234 55.8348 32.0186 56.326 32.0186 57.2232C32.0186 57.9708 32.7662 58.462 33.5992 58.462C34.774 58.4407 35.2225 57.8426 35.2225 57.0096Z" fill="white"/>
<path d="M39.2595 56.3689C39.2595 57.3941 38.9178 57.8 38.1702 57.8C37.4226 57.8 36.91 57.1378 36.91 56.3048C36.91 55.3649 37.3158 54.8096 38.042 54.8096C39.0246 54.7882 39.2595 55.5999 39.2595 56.3689ZM39.9858 56.1766V53.3571C39.9858 52.9726 39.8149 52.7804 39.4518 52.7804H39.2595V54.9377C38.9819 54.361 38.5119 54.1261 37.9993 54.1261C36.8459 54.1261 36.1837 54.9164 36.1837 56.3475C36.1837 57.5009 37.0595 58.4621 38.0848 58.4621C39.3877 58.4408 39.9858 57.7573 39.9858 56.1766Z" fill="white"/>
<path d="M44.0441 56.3688C44.0441 57.1804 43.6596 57.7785 42.9547 57.7785C42.1431 57.7785 41.6731 57.1804 41.6731 56.2193C41.6731 55.3649 42.1217 54.8095 42.7839 54.8095C43.5955 54.8095 44.0441 55.3435 44.0441 56.3688ZM44.749 56.1979C44.749 54.959 43.98 54.126 42.8693 54.126C41.6945 54.126 40.9469 54.9804 40.9469 56.3474C40.9469 57.5863 41.7799 58.4407 42.8693 58.4407C44.0227 58.4407 44.749 57.6076 44.749 56.1979Z" fill="white"/>
<path d="M47.9316 55.0872V54.7454C47.9316 54.4677 47.718 54.2114 47.1627 54.2114C46.351 54.2114 45.7957 54.8309 45.7957 55.9843V57.9067C45.7957 58.1844 45.9452 58.3766 46.2015 58.3766H46.5005V56.0484C46.5005 55.1513 46.7141 54.8949 47.2695 54.8949C47.5472 54.8949 47.7821 54.9804 47.9103 55.1085H47.9316V55.0872Z" fill="white"/>
<path d="M50.9648 56.9455C50.9648 57.5436 50.7085 57.7999 50.0677 57.7999C49.5337 57.7999 49.1706 57.5222 49.1706 57.1377C49.1706 56.6678 49.5551 56.4115 50.3881 56.4115H50.9648V56.9455ZM51.6697 57.0096V55.7066C51.6697 54.7027 51.1143 54.1473 50.0463 54.1473C49.1065 54.1473 48.6152 54.6386 48.6152 55.0231V55.3649H48.6579C48.8929 55.0231 49.3628 54.7881 49.9823 54.7881C50.6658 54.7881 50.9648 55.0445 50.9648 55.6425V55.8348H50.4095C49.1706 55.8348 48.4657 56.326 48.4657 57.2232C48.4657 57.9708 49.2133 58.462 50.0463 58.462C51.2211 58.4407 51.6697 57.8426 51.6697 57.0096Z" fill="white"/>
<path d="M63.7379 55.792C63.7379 57.0309 63.1185 57.7999 62.0932 57.7999C60.9398 57.7999 60.3631 57.0309 60.3631 55.6639C60.3631 54.3182 61.0039 53.6561 62.0078 53.6561C63.2039 53.6561 63.7379 54.3609 63.7379 55.792ZM64.4428 55.6425C64.4428 54.0833 63.5244 52.9939 62.0932 52.9939C60.534 52.9939 59.6582 54.1473 59.6582 55.792C59.6582 57.4581 60.7262 58.462 62.0078 58.462C63.5671 58.4407 64.4428 57.2659 64.4428 55.6425Z" fill="white"/>
<path d="M68.4799 56.3901C68.4799 57.2872 68.074 57.7999 67.4119 57.7999C66.6429 57.7999 66.1089 57.2872 66.1089 56.2193C66.1089 55.3649 66.5148 54.8095 67.241 54.8095C67.9886 54.7881 68.4799 55.2581 68.4799 56.3901ZM69.2061 56.1979C69.2061 54.959 68.3304 54.126 67.4119 54.126C66.0876 54.126 65.4254 54.9804 65.4254 56.4115V59.1669C65.4254 59.5514 65.5963 59.7009 65.8953 59.7009H66.1517V57.7144C66.3653 58.1416 66.8779 58.4407 67.3478 58.4407C68.3944 58.4407 69.2061 57.6076 69.2061 56.1979Z" fill="white"/>
<path d="M72.9014 55.6212C72.9014 55.9416 72.7305 56.027 71.7266 56.0484L70.7868 56.0697V55.8989C70.8081 55.3649 71.2567 54.7881 71.9402 54.7881C72.581 54.7668 72.9014 55.1513 72.9014 55.6212ZM73.5849 55.5785C73.5849 54.7454 72.816 54.126 72.0043 54.126C70.8936 54.126 70.0605 55.0231 70.0605 56.3688C70.0605 57.5649 70.8722 58.4407 72.0257 58.4407C72.9655 58.4407 73.4354 58.0989 73.4354 57.6717V57.3513H73.3927C73.1577 57.5863 72.7733 57.7785 72.1325 57.7785C71.3635 57.7785 70.8722 57.2872 70.8081 56.6037H71.8334C73.2432 56.6037 73.5849 56.3047 73.5849 55.5785Z" fill="white"/>
<path d="M76.7462 55.0872V54.7454C76.7462 54.4677 76.5326 54.2114 75.9773 54.2114C75.1656 54.2114 74.6102 54.8309 74.6102 55.9843V57.9067C74.6102 58.1844 74.7598 58.3766 75.0161 58.3766H75.3151V56.0484C75.3151 55.1513 75.5287 54.8949 76.0841 54.8949C76.3617 54.8949 76.5967 54.9804 76.7249 55.1085H76.7462V55.0872Z" fill="white"/>
<path d="M79.7793 56.9455C79.7793 57.5436 79.5229 57.7999 78.8821 57.7999C78.3481 57.7999 77.985 57.5222 77.985 57.1377C77.985 56.6678 78.3695 56.4115 79.2025 56.4115H79.7793V56.9455ZM80.4841 57.0096V55.7066C80.4841 54.7027 79.9288 54.1473 78.8608 54.1473C77.921 54.1473 77.4297 54.6386 77.4297 55.0231V55.3649H77.4724C77.7074 55.0231 78.1773 54.7881 78.7967 54.7881C79.4802 54.7881 79.7793 55.0445 79.7793 55.6425V55.8348H79.2239C77.985 55.8348 77.2802 56.326 77.2802 57.2232C77.2802 57.9708 78.0278 58.462 78.8608 58.462C80.0356 58.4407 80.4841 57.8426 80.4841 57.0096Z" fill="white"/>
<path d="M84.4998 56.3689C84.4998 57.3941 84.158 57.8 83.4104 57.8C82.6628 57.8 82.1502 57.1378 82.1502 56.3048C82.1502 55.3649 82.556 54.8096 83.2823 54.8096C84.2862 54.7882 84.4998 55.5999 84.4998 56.3689ZM85.226 56.1766V53.3571C85.226 52.9726 85.0551 52.7804 84.692 52.7804H84.4998V54.9377C84.2221 54.361 83.7522 54.1261 83.2395 54.1261C82.0861 54.1261 81.424 54.9164 81.424 56.3475C81.424 57.5009 82.2997 58.4621 83.325 58.4621C84.6493 58.4408 85.226 57.7573 85.226 56.1766Z" fill="white"/>
<path d="M89.2844 56.3688C89.2844 57.1804 88.9 57.7785 88.1951 57.7785C87.3834 57.7785 86.9135 57.1804 86.9135 56.2193C86.9135 55.3649 87.3621 54.8095 88.0242 54.8095C88.8572 54.8095 89.2844 55.3435 89.2844 56.3688ZM90.0107 56.1979C90.0107 54.959 89.2417 54.126 88.131 54.126C86.9562 54.126 86.2086 54.9804 86.2086 56.3474C86.2086 57.5863 87.0417 58.4407 88.131 58.4407C89.2631 58.4407 90.0107 57.6076 90.0107 56.1979Z" fill="white"/>
<path d="M93.1934 55.0872V54.7454C93.1934 54.4677 92.9798 54.2114 92.4244 54.2114C91.6127 54.2114 91.0574 54.8309 91.0574 55.9843V57.9067C91.0574 58.1844 91.2069 58.3766 91.4632 58.3766H91.7623V56.0484C91.7623 55.1513 91.9759 54.8949 92.5312 54.8949C92.8089 54.8949 93.0439 54.9804 93.172 55.1085H93.1934V55.0872Z" fill="white"/>
<path d="M96.2264 56.9455C96.2264 57.5436 95.9701 57.7999 95.3293 57.7999C94.7953 57.7999 94.4322 57.5222 94.4322 57.1377C94.4322 56.6678 94.8167 56.4115 95.6497 56.4115H96.2264V56.9455ZM96.9313 57.0096V55.7066C96.9313 54.7027 96.3759 54.1473 95.3079 54.1473C94.3681 54.1473 93.8768 54.6386 93.8768 55.0231V55.3649H93.9195C94.1545 55.0231 94.6244 54.7881 95.2439 54.7881C95.9274 54.7881 96.2264 55.0445 96.2264 55.6425V55.8348H95.671C94.4322 55.8348 93.7273 56.326 93.7273 57.2232C93.7273 57.9708 94.4749 58.462 95.3079 58.462C96.4614 58.4407 96.9313 57.8426 96.9313 57.0096Z" fill="white"/>
<path d="M102.656 56.3689C102.656 57.3941 102.314 57.8 101.566 57.8C100.819 57.8 100.306 57.1378 100.306 56.3048C100.306 55.3649 100.712 54.8096 101.438 54.8096C102.442 54.7882 102.656 55.5999 102.656 56.3689ZM103.382 56.1766V53.3571C103.382 52.9726 103.211 52.7804 102.848 52.7804H102.656V54.9377C102.378 54.361 101.908 54.1261 101.396 54.1261C100.242 54.1261 99.58 54.9164 99.58 56.3475C99.58 57.5009 100.456 58.4621 101.481 58.4621C102.805 58.4408 103.382 57.7573 103.382 56.1766Z" fill="white"/>
<path d="M107.184 55.6212C107.184 55.9416 107.013 56.027 106.009 56.0484L105.069 56.0697V55.8989C105.091 55.3649 105.539 54.7881 106.223 54.7881C106.885 54.7668 107.184 55.1513 107.184 55.6212ZM107.889 55.5785C107.889 54.7454 107.12 54.126 106.308 54.126C105.198 54.126 104.365 55.0231 104.365 56.3688C104.365 57.5649 105.176 58.4407 106.33 58.4407C107.269 58.4407 107.739 58.0989 107.739 57.6717V57.3513H107.697C107.462 57.5863 107.077 57.7785 106.436 57.7785C105.667 57.7785 105.176 57.2872 105.112 56.6037H106.137C107.547 56.6037 107.889 56.3047 107.889 55.5785Z" fill="white"/>
<path d="M114.062 53.3357V53.058H110.516C110.196 53.058 110.068 53.2502 110.068 53.4425V53.6988H111.691V57.8853C111.691 58.2271 111.84 58.3339 112.161 58.3339H112.417V53.6988H113.656C113.891 53.7201 114.062 53.4852 114.062 53.3357Z" fill="white"/>
<path d="M118.099 56.5824V54.7668C118.099 54.3823 117.928 54.2114 117.586 54.2114H117.394V56.5183C117.394 57.4154 117.052 57.7785 116.412 57.7785C115.813 57.7785 115.365 57.33 115.365 56.4756V54.7454C115.365 54.3823 115.194 54.1901 114.874 54.1901H114.66V56.4969C114.66 57.7144 115.344 58.4193 116.369 58.4193C117.458 58.4407 118.099 57.7999 118.099 56.5824Z" fill="white"/>
<path d="M121.367 55.0872V54.7454C121.367 54.4677 121.153 54.2114 120.598 54.2114C119.786 54.2114 119.231 54.8309 119.231 55.9843V57.9067C119.231 58.1844 119.381 58.3766 119.637 58.3766H119.936V56.0484C119.936 55.1513 120.15 54.8949 120.705 54.8949C120.983 54.8949 121.218 54.9804 121.346 55.1085H121.367V55.0872Z" fill="white"/>
<path d="M123.823 57.9922V57.7572H123.524C123.14 57.7572 122.884 57.5864 122.884 57.0737V54.7669C122.884 54.4037 122.627 54.2115 122.392 54.2115H122.179V57.1805C122.179 58.0136 122.606 58.4194 123.418 58.4194C123.653 58.4194 123.823 58.2485 123.823 57.9922ZM123.012 53.1435C123.012 52.8872 122.798 52.6522 122.542 52.6522C122.285 52.6522 122.051 52.8872 122.051 53.1435C122.051 53.3998 122.264 53.6348 122.542 53.6348C122.798 53.6348 123.012 53.3998 123.012 53.1435Z" fill="white"/>
<path d="M127.305 57.1164C127.305 56.5396 126.899 56.1552 126.066 55.9843C125.212 55.7921 125.041 55.6853 125.041 55.4076C125.041 55.0658 125.319 54.8095 126.023 54.8095C126.515 54.8095 126.963 55.0231 127.156 55.2367H127.198V54.9163C127.198 54.4037 126.6 54.126 125.981 54.126C124.934 54.126 124.336 54.7668 124.336 55.4289C124.336 56.0484 124.699 56.326 125.49 56.4756C126.451 56.6678 126.579 56.8173 126.579 57.1591C126.579 57.5649 126.301 57.7572 125.682 57.7572C125.148 57.7572 124.678 57.5436 124.443 57.2872H124.4V57.5863C124.4 58.0776 124.955 58.4193 125.66 58.4193C126.643 58.4407 127.305 57.9921 127.305 57.1164Z" fill="white"/>
<path d="M134.162 58.3766V55.9843C134.162 54.7454 133.606 54.126 132.581 54.126C132.026 54.126 131.534 54.425 131.278 54.8736C131.022 54.3823 130.594 54.126 129.975 54.126C128.886 54.126 128.266 54.959 128.266 55.9202V57.8426C128.266 58.1844 128.458 58.3552 128.758 58.3552H128.992V55.9843C128.992 55.1299 129.313 54.7668 129.932 54.7668C130.53 54.7668 130.872 55.2367 130.872 55.9843V57.8212C130.872 58.163 131 58.3339 131.342 58.3339H131.577V55.9416C131.577 55.1085 131.855 54.7454 132.56 54.7454C133.136 54.7454 133.457 55.0872 133.457 55.9629V57.7999C133.457 58.1416 133.649 58.3125 133.927 58.3125H134.162V58.3766Z" fill="white"/>
<path d="M138.22 56.3688C138.22 57.1804 137.836 57.7785 137.131 57.7785C136.319 57.7785 135.849 57.1804 135.849 56.2193C135.849 55.3649 136.298 54.8095 136.96 54.8095C137.771 54.8095 138.22 55.3435 138.22 56.3688ZM138.925 56.1979C138.925 54.959 138.156 54.126 137.045 54.126C135.87 54.126 135.123 54.9804 135.123 56.3474C135.123 57.5863 135.956 58.4407 137.045 58.4407C138.199 58.4407 138.925 57.6076 138.925 56.1979Z" fill="white"/>
<path d="M56.1979 52.1395H55.5785V60H56.1979V52.1395Z" fill="white"/>
</g>
<defs>
<clipPath id="clip0_8_188">
<rect width="139.373" height="60" fill="white"/>
</clipPath>
</defs>
</svg>
