<svg width="169" height="200" viewBox="0 0 169 200" fill="none" xmlns="http://www.w3.org/2000/svg">
<g clip-path="url(#clip0_2_41)">
<path fill-rule="evenodd" clip-rule="evenodd" d="M18.8918 110.57V128.113C24.0851 123.697 29.4418 117.726 40.319 118.135C49.8876 118.503 57.1662 123.738 60.9691 129.708C77.7755 156.083 42.2817 183.725 20.732 160.99C13.6577 153.506 14.312 147.823 14.312 134.901C14.312 113.678 14.1076 92.3738 14.2711 71.1511L0.449813 79.9019C0.122682 101.656 -0.817821 143.733 1.59477 153.098C6.46085 172.112 27.9289 190.309 53.6087 180.372C71.56 173.421 86.7716 149.704 74.5042 126.068C64.9356 107.626 41.7093 97.4852 18.8918 110.57Z" fill="white"/>
<path fill-rule="evenodd" clip-rule="evenodd" d="M167.328 180.74V167.941C134.983 167.45 140.339 174.157 140.339 119.567H167.328L167.287 106.154L140.339 106.113V87.1805L126.763 97.6079C126.518 116.336 126.968 135.064 126.845 153.793C126.682 182.253 141.157 180.945 167.328 180.74Z" fill="white"/>
<path fill-rule="evenodd" clip-rule="evenodd" d="M83.4594 181.681H97.158V150.194C97.158 138.745 96.8718 135.351 103.006 128.113C107.749 122.511 112.533 120.098 122.102 119.321L122.388 106.072C106.727 106.072 105.623 108.076 96.4629 115.845L96.2584 106.072H83.5003L83.4594 181.681Z" fill="white"/>
<path d="M7.03332 193.13V192.803C7.03332 192.272 6.46084 191.617 5.39766 191.617C3.39398 191.617 2.24902 193.171 2.24902 194.848C2.24902 196.811 3.59844 198.119 5.27499 198.119C6.37906 198.119 6.99243 197.587 6.99243 196.974V196.729H6.95154C6.62441 197.138 6.09282 197.342 5.43856 197.342C4.13003 197.342 3.10774 196.443 3.10774 194.725C3.10774 193.376 4.00735 192.435 5.39766 192.435C5.97014 192.435 6.58352 192.599 6.95154 193.13H7.03332Z" fill="white"/>
<path d="M11.4496 195.666C11.4496 196.647 10.9998 197.342 10.1411 197.342C9.15969 197.342 8.58721 196.606 8.58721 195.461C8.58721 194.439 9.1188 193.785 9.93662 193.785C10.9589 193.785 11.4496 194.439 11.4496 195.666ZM12.3083 195.461C12.3083 193.989 11.4087 192.967 10.0593 192.967C8.66899 192.967 7.76938 193.989 7.76938 195.625C7.76938 197.097 8.75077 198.119 10.0593 198.119C11.4496 198.16 12.3083 197.138 12.3083 195.461Z" fill="white"/>
<path d="M17.6242 198.078V195.216C17.6242 193.744 16.8882 193.008 15.6205 193.008C14.3529 193.008 13.4942 193.825 13.4942 195.216V197.506C13.4942 197.915 13.6986 198.078 14.0258 198.078H14.3529V195.257C14.3529 194.234 14.7618 193.825 15.5387 193.825C16.4384 193.825 16.8064 194.234 16.8064 195.257V197.547C16.8064 197.915 17.0108 198.078 17.338 198.078H17.6242Z" fill="white"/>
<path d="M22.3267 196.565C22.3267 195.87 21.836 195.42 20.8546 195.216C19.8323 195.011 19.6279 194.848 19.6279 194.521C19.6279 194.112 19.955 193.825 20.8137 193.825C21.3862 193.825 21.9587 194.071 22.1632 194.357H22.204V193.989C22.204 193.376 21.468 193.048 20.732 193.048C19.5052 193.048 18.7692 193.785 18.7692 194.602C18.7692 195.338 19.219 195.666 20.1186 195.87C21.2635 196.115 21.4271 196.279 21.4271 196.688C21.4271 197.178 21.1 197.424 20.3639 197.424C19.7097 197.424 19.1781 197.178 18.8918 196.851H18.8509V197.219C18.8509 197.833 19.5052 198.201 20.3639 198.201C21.5089 198.16 22.3267 197.587 22.3267 196.565Z" fill="white"/>
<path d="M27.0292 195.666C27.0292 196.647 26.5794 197.342 25.7207 197.342C24.7393 197.342 24.1668 196.606 24.1668 195.461C24.1668 194.439 24.6984 193.785 25.5162 193.785C26.4976 193.785 27.0292 194.439 27.0292 195.666ZM27.8879 195.461C27.8879 193.989 26.9883 192.967 25.6389 192.967C24.2486 192.967 23.349 193.989 23.349 195.625C23.349 197.097 24.3304 198.119 25.6389 198.119C26.9883 198.16 27.8879 197.138 27.8879 195.461Z" fill="white"/>
<path d="M31.3228 197.587V197.301H30.7912C30.3414 197.301 30.0143 197.138 30.0143 196.483V191.985C30.0143 191.536 29.7689 191.331 29.4009 191.331H29.1556V196.606C29.1556 197.628 29.6872 198.078 30.6686 198.078C31.1184 198.078 31.3228 197.955 31.3228 197.587Z" fill="white"/>
<path d="M34.1852 197.587V197.301H33.8172C33.3674 197.301 33.0403 197.097 33.0403 196.483V193.703C33.0403 193.253 32.754 193.048 32.4678 193.048H32.2224V196.606C32.2224 197.587 32.754 198.078 33.6945 198.078C33.9808 198.119 34.1852 197.915 34.1852 197.587ZM33.2038 191.822C33.2038 191.495 32.9585 191.249 32.6313 191.249C32.3042 191.249 32.0589 191.536 32.0589 191.822C32.0589 192.149 32.3042 192.394 32.6313 192.394C32.9585 192.394 33.2038 192.108 33.2038 191.822Z" fill="white"/>
<path d="M38.5197 195.666C38.5197 196.892 38.1108 197.383 37.2112 197.383C36.3116 197.383 35.6982 196.565 35.6982 195.584C35.6982 194.439 36.1889 193.785 37.0476 193.785C38.2335 193.785 38.5197 194.766 38.5197 195.666ZM39.3785 195.42V192.026C39.3785 191.576 39.174 191.331 38.7651 191.331H38.5606V193.907C38.2335 193.212 37.661 192.967 37.0476 192.967C35.6573 192.967 34.8804 193.907 34.8804 195.625C34.8804 197.015 35.9436 198.16 37.1703 198.16C38.6833 198.16 39.3785 197.342 39.3785 195.42Z" fill="white"/>
<path d="M43.5494 196.361C43.5494 197.097 43.2222 197.383 42.4862 197.383C41.8319 197.383 41.423 197.056 41.423 196.606C41.423 196.074 41.8728 195.747 42.8951 195.747H43.5903V196.361H43.5494ZM44.3672 196.402V194.848C44.3672 193.621 43.7129 192.967 42.4453 192.967C41.3412 192.967 40.7279 193.58 40.7279 194.03V194.439H40.7688C41.055 194.03 41.6275 193.744 42.3635 193.744C43.1814 193.744 43.5494 194.03 43.5494 194.766V195.011H42.8951C41.423 195.011 40.5643 195.584 40.5643 196.688C40.5643 197.587 41.4639 198.16 42.4453 198.16C43.8356 198.16 44.3672 197.424 44.3672 196.402Z" fill="white"/>
<path d="M49.1924 195.666C49.1924 196.892 48.7835 197.383 47.8838 197.383C46.9842 197.383 46.3709 196.565 46.3709 195.584C46.3709 194.439 46.8616 193.785 47.7203 193.785C48.9061 193.785 49.1924 194.766 49.1924 195.666ZM50.0511 195.42V192.026C50.0511 191.576 49.8466 191.331 49.4377 191.331H49.2333V193.907C48.9061 193.212 48.3337 192.967 47.7203 192.967C46.33 192.967 45.553 193.907 45.553 195.625C45.553 197.015 46.6162 198.16 47.843 198.16C49.3559 198.16 50.0511 197.342 50.0511 195.42Z" fill="white"/>
<path d="M54.9172 195.666C54.9172 196.647 54.4674 197.342 53.6087 197.342C52.6273 197.342 52.0548 196.606 52.0548 195.461C52.0548 194.439 52.5864 193.785 53.4042 193.785C54.3856 193.785 54.9172 194.439 54.9172 195.666ZM55.7759 195.461C55.7759 193.989 54.8763 192.967 53.5269 192.967C52.1366 192.967 51.237 193.989 51.237 195.625C51.237 197.097 52.2184 198.119 53.5269 198.119C54.8763 198.16 55.7759 197.138 55.7759 195.461Z" fill="white"/>
<path d="M59.5788 194.112V193.703C59.5788 193.376 59.3335 193.089 58.6383 193.089C57.6569 193.089 57.0027 193.825 57.0027 195.216V197.506C57.0027 197.833 57.1662 198.078 57.4934 198.078H57.8614V195.297C57.8614 194.234 58.1067 193.907 58.761 193.907C59.0881 193.907 59.3744 194.03 59.5379 194.153H59.5788V194.112Z" fill="white"/>
<path d="M63.1773 196.361C63.1773 197.097 62.8501 197.383 62.1141 197.383C61.4598 197.383 61.0509 197.056 61.0509 196.606C61.0509 196.074 61.5007 195.747 62.523 195.747H63.2182V196.361H63.1773ZM64.036 196.402V194.848C64.036 193.621 63.3817 192.967 62.1141 192.967C61.01 192.967 60.3967 193.58 60.3967 194.03V194.439H60.4376C60.7238 194.03 61.2554 193.744 62.0323 193.744C62.8501 193.744 63.2182 194.03 63.2182 194.766V195.011H62.5639C61.0918 195.011 60.2331 195.584 60.2331 196.688C60.2331 197.587 61.1327 198.16 62.1141 198.16C63.5044 198.16 64.036 197.424 64.036 196.402Z" fill="white"/>
<path d="M78.4706 194.97C78.4706 196.442 77.7346 197.383 76.5078 197.383C75.1584 197.383 74.4224 196.442 74.4224 194.807C74.4224 193.212 75.1993 192.394 76.3852 192.394C77.8164 192.394 78.4706 193.253 78.4706 194.97ZM79.2885 194.807C79.2885 192.926 78.1844 191.617 76.467 191.617C74.5859 191.617 73.5637 193.008 73.5637 194.97C73.5637 196.974 74.8313 198.16 76.3852 198.16C78.2662 198.16 79.2885 196.729 79.2885 194.807Z" fill="white"/>
<path d="M84.1546 195.666C84.1546 196.729 83.6639 197.342 82.8869 197.342C81.9464 197.342 81.3331 196.729 81.3331 195.461C81.3331 194.439 81.8238 193.785 82.6825 193.785C83.5412 193.785 84.1546 194.316 84.1546 195.666ZM85.0133 195.461C85.0133 193.989 83.9501 193.008 82.8869 193.008C81.2922 193.008 80.5152 194.03 80.5152 195.747V199.059C80.5152 199.509 80.7197 199.714 81.0468 199.714H81.374V197.342C81.6193 197.874 82.2327 198.201 82.8052 198.201C84.0319 198.16 85.0133 197.138 85.0133 195.461Z" fill="white"/>
<path d="M89.4296 194.766C89.4296 195.134 89.2251 195.257 88.0393 195.257H86.8943V195.052C86.9352 194.398 87.4259 193.703 88.2437 193.703C89.0207 193.744 89.4296 194.234 89.4296 194.766ZM90.2474 194.725C90.2474 193.744 89.3478 193.008 88.3664 193.008C87.0579 193.008 86.0356 194.071 86.0356 195.706C86.0356 197.138 87.017 198.201 88.3664 198.201C89.4705 198.201 90.0429 197.792 90.0429 197.26V196.892H90.0021C89.7158 197.178 89.266 197.424 88.4891 197.424C87.5486 197.424 86.9761 196.851 86.8943 195.993H88.121C89.8385 195.952 90.2474 195.584 90.2474 194.725Z" fill="white"/>
<path d="M94.0094 194.112V193.703C94.0094 193.376 93.764 193.089 93.0689 193.089C92.0875 193.089 91.4332 193.825 91.4332 195.216V197.506C91.4332 197.833 91.5968 198.078 91.9239 198.078H92.2919V195.297C92.2919 194.234 92.5373 193.907 93.1916 193.907C93.5187 193.907 93.8049 194.03 93.9685 194.153H94.0094V194.112Z" fill="white"/>
<path d="M97.6487 196.361C97.6487 197.097 97.3216 197.383 96.5856 197.383C95.9313 197.383 95.5224 197.056 95.5224 196.606C95.5224 196.074 95.9722 195.747 96.9945 195.747H97.6896V196.361H97.6487ZM98.4666 196.402V194.848C98.4666 193.621 97.8123 192.967 96.5447 192.967C95.4406 192.967 94.8272 193.58 94.8272 194.03V194.439H94.8681C95.1544 194.03 95.6859 193.744 96.4629 193.744C97.2807 193.744 97.6487 194.03 97.6487 194.766V195.011H96.9945C95.5224 195.011 94.6637 195.584 94.6637 196.688C94.6637 197.587 95.5633 198.16 96.5447 198.16C97.935 198.16 98.4666 197.424 98.4666 196.402Z" fill="white"/>
<path d="M103.292 195.666C103.292 196.892 102.883 197.383 101.983 197.383C101.084 197.383 100.47 196.565 100.47 195.584C100.47 194.439 100.961 193.785 101.82 193.785C103.006 193.785 103.292 194.766 103.292 195.666ZM104.15 195.42V192.026C104.15 191.576 103.946 191.331 103.537 191.331H103.333V193.907C103.006 193.212 102.433 192.967 101.82 192.967C100.429 192.967 99.6524 193.907 99.6524 195.625C99.6524 197.015 100.716 198.16 101.942 198.16C103.455 198.16 104.15 197.342 104.15 195.42Z" fill="white"/>
<path d="M109.017 195.666C109.017 196.647 108.567 197.342 107.708 197.342C106.727 197.342 106.154 196.606 106.154 195.461C106.154 194.439 106.686 193.785 107.504 193.785C108.485 193.785 109.017 194.439 109.017 195.666ZM109.875 195.461C109.875 193.989 108.976 192.967 107.626 192.967C106.236 192.967 105.336 193.989 105.336 195.625C105.336 197.097 106.318 198.119 107.626 198.119C108.976 198.16 109.875 197.138 109.875 195.461Z" fill="white"/>
<path d="M113.678 194.112V193.703C113.678 193.376 113.433 193.089 112.738 193.089C111.756 193.089 111.102 193.825 111.102 195.216V197.506C111.102 197.833 111.266 198.078 111.593 198.078H111.961V195.297C111.961 194.234 112.206 193.907 112.86 193.907C113.187 193.907 113.474 194.03 113.637 194.153H113.678V194.112Z" fill="white"/>
<path d="M117.277 196.361C117.277 197.097 116.949 197.383 116.213 197.383C115.559 197.383 115.15 197.056 115.15 196.606C115.15 196.074 115.6 195.747 116.622 195.747H117.317V196.361H117.277ZM118.135 196.402V194.848C118.135 193.621 117.481 192.967 116.213 192.967C115.109 192.967 114.496 193.58 114.496 194.03V194.439H114.537C114.823 194.03 115.396 193.744 116.132 193.744C116.949 193.744 117.317 194.03 117.317 194.766V195.011H116.663C115.191 195.011 114.332 195.584 114.332 196.688C114.332 197.587 115.232 198.16 116.213 198.16C117.604 198.16 118.135 197.424 118.135 196.402Z" fill="white"/>
<path d="M125.005 195.666C125.005 196.892 124.596 197.383 123.697 197.383C122.797 197.383 122.184 196.565 122.184 195.584C122.184 194.439 122.674 193.785 123.533 193.785C124.719 193.785 125.005 194.766 125.005 195.666ZM125.864 195.42V192.026C125.864 191.576 125.659 191.331 125.25 191.331H125.046V193.907C124.719 193.212 124.146 192.967 123.533 192.967C122.143 192.967 121.366 193.907 121.366 195.625C121.366 197.015 122.429 198.16 123.656 198.16C125.169 198.16 125.864 197.342 125.864 195.42Z" fill="white"/>
<path d="M130.403 194.766C130.403 195.134 130.198 195.257 129.012 195.257H127.868V195.052C127.908 194.398 128.399 193.703 129.217 193.703C130.035 193.744 130.403 194.234 130.403 194.766ZM131.221 194.725C131.221 193.744 130.321 193.008 129.34 193.008C128.031 193.008 127.009 194.071 127.009 195.706C127.009 197.138 127.99 198.201 129.34 198.201C130.444 198.201 131.016 197.792 131.016 197.26V196.892H130.975C130.689 197.178 130.239 197.424 129.462 197.424C128.522 197.424 127.949 196.851 127.868 195.993H129.094C130.812 195.952 131.221 195.584 131.221 194.725Z" fill="white"/>
<path d="M138.622 192.067V191.74H134.369C133.96 191.74 133.838 191.944 133.838 192.19V192.517H135.76V197.506C135.76 197.914 135.964 198.037 136.291 198.037H136.618V192.476H138.09C138.417 192.517 138.622 192.231 138.622 192.067Z" fill="white"/>
<path d="M143.447 195.911V193.744C143.447 193.294 143.243 193.089 142.834 193.089H142.588V195.829C142.588 196.892 142.179 197.342 141.403 197.342C140.667 197.342 140.176 196.81 140.176 195.788V193.744C140.176 193.294 139.971 193.089 139.603 193.089H139.358V195.87C139.358 197.342 140.176 198.16 141.403 198.16C142.67 198.16 143.447 197.383 143.447 195.911Z" fill="white"/>
<path d="M147.373 194.112V193.703C147.373 193.376 147.127 193.089 146.432 193.089C145.451 193.089 144.797 193.825 144.797 195.216V197.506C144.797 197.833 144.96 198.078 145.287 198.078H145.655V195.297C145.655 194.234 145.901 193.907 146.555 193.907C146.882 193.907 147.168 194.03 147.332 194.153H147.373V194.112Z" fill="white"/>
<path d="M150.276 197.587V197.301H149.908C149.458 197.301 149.131 197.097 149.131 196.483V193.703C149.131 193.253 148.845 193.048 148.559 193.048H148.313V196.606C148.313 197.587 148.845 198.078 149.785 198.078C150.072 198.119 150.276 197.915 150.276 197.587ZM149.295 191.822C149.295 191.495 149.049 191.249 148.722 191.249C148.395 191.249 148.15 191.536 148.15 191.822C148.15 192.149 148.395 192.394 148.722 192.394C149.049 192.394 149.295 192.108 149.295 191.822Z" fill="white"/>
<path d="M154.447 196.565C154.447 195.87 153.956 195.42 152.975 195.216C151.953 195.011 151.748 194.848 151.748 194.521C151.748 194.112 152.075 193.825 152.934 193.825C153.506 193.825 154.079 194.071 154.283 194.357H154.324V193.989C154.324 193.376 153.588 193.048 152.852 193.048C151.625 193.048 150.889 193.785 150.889 194.602C150.889 195.338 151.339 195.666 152.239 195.87C153.384 196.115 153.547 196.279 153.547 196.688C153.547 197.178 153.22 197.424 152.484 197.424C151.83 197.424 151.298 197.178 151.012 196.851H150.971V197.219C150.971 197.833 151.625 198.201 152.484 198.201C153.629 198.16 154.447 197.587 154.447 196.565Z" fill="white"/>
<path d="M162.666 198.078V195.216C162.666 193.744 162.012 193.008 160.785 193.008C160.131 193.008 159.558 193.376 159.231 193.907C158.904 193.335 158.413 193.008 157.677 193.008C156.369 193.008 155.633 193.989 155.633 195.134V197.424C155.633 197.833 155.878 198.037 156.205 198.037H156.492V195.216C156.492 194.193 156.86 193.744 157.596 193.744C158.332 193.744 158.7 194.275 158.7 195.216V197.424C158.7 197.833 158.863 198.037 159.272 198.037H159.558V195.175C159.558 194.153 159.885 193.744 160.703 193.744C161.398 193.744 161.766 194.153 161.766 195.216V197.424C161.766 197.833 162.012 198.037 162.339 198.037H162.666V198.078Z" fill="white"/>
<path d="M167.491 195.666C167.491 196.647 167.041 197.342 166.183 197.342C165.201 197.342 164.629 196.606 164.629 195.461C164.629 194.439 165.16 193.785 165.978 193.785C166.96 193.785 167.491 194.439 167.491 195.666ZM168.35 195.461C168.35 193.989 167.45 192.967 166.101 192.967C164.711 192.967 163.811 193.989 163.811 195.625C163.811 197.097 164.792 198.119 166.101 198.119C167.45 198.16 168.35 197.138 168.35 195.461Z" fill="white"/>
<path d="M69.4336 190.595H68.6976V200H69.4336V190.595Z" fill="white"/>
<path fill-rule="evenodd" clip-rule="evenodd" d="M28.9511 57.4116V59.2926C29.1965 59.7424 29.2783 64.036 29.4009 65.0174C29.9734 69.8017 31.4046 75.5265 33.2447 79.9019C34.1852 82.11 35.044 84.1955 36.2298 86.2809C36.8432 87.385 37.8655 89.1842 38.5606 90.2065L42.6089 95.5633H42.7316C42.2409 94.5819 41.5457 93.6005 40.9732 92.66C40.687 92.1693 40.3598 91.7195 40.0327 91.1879C38.6015 88.9389 37.1294 85.7902 36.1889 83.3367C34.3897 78.6342 33.0403 73.9726 32.3451 68.4931C31.6091 62.6457 31.6909 56.7573 32.5905 51.0325C33.2038 47.1069 34.2261 43.5903 35.5756 39.9509C35.78 39.3784 35.9845 38.8469 36.2298 38.3153C36.925 36.7614 37.6201 35.044 38.4788 33.5719C38.7651 33.0403 39.0104 32.5496 39.2967 32.018C39.8283 31.0366 40.4007 30.0143 41.055 29.0738L42.4862 26.9883C42.6907 26.7021 42.7724 26.5385 42.9769 26.2932C43.6721 25.4345 44.3263 24.494 45.0215 23.6761L46.0846 22.4085C47.6385 20.8137 49.0697 19.1372 50.7463 17.6651C51.9321 16.6428 53.3224 15.3343 54.5492 14.4756C55.9395 13.5351 57.248 12.5128 58.7201 11.6132L63.259 9.15968L66.4895 7.68759C66.9802 7.48313 67.5935 7.23778 68.1251 7.03333C69.311 6.58352 70.4151 6.2155 71.6009 5.84748C73.3592 5.31589 75.3629 4.7843 77.203 4.45717C77.5711 4.37538 77.8982 4.33449 78.2253 4.2936C78.5116 4.25271 78.8796 4.25271 79.1658 4.17093C78.4298 4.70251 77.6119 5.15232 76.7941 5.68391C76.0172 6.17461 75.1993 6.74709 74.4224 7.23778L72.705 8.50542C72.6232 8.5872 72.5005 8.66898 72.4187 8.75077C71.6009 9.36414 70.824 10.1002 70.0879 10.7953C69.8426 11.0407 69.7199 11.0407 69.5154 11.2451L67.43 13.0853C67.062 13.4124 66.8575 13.7804 66.5304 14.1075L62.8501 18.2376C62.7275 18.4011 62.7275 18.4011 62.6457 18.5647L60.7647 21.0591C59.9468 22.204 59.1699 23.4717 58.4339 24.6575C57.6569 25.8434 56.1848 28.4604 55.6532 29.6872C55.4488 30.137 55.2852 30.5459 55.0399 31.0366C54.222 32.9176 53.5269 34.8395 52.8726 36.8023C52.5864 37.7019 52.3819 38.6833 51.9321 39.5011C51.8912 39.5829 51.8912 39.5829 51.8503 39.6647C49.6831 39.542 46.4118 37.8655 44.6943 36.6796C43.9174 36.148 43.0996 35.5755 42.3635 34.9622C42.1182 34.7577 41.5457 34.1852 41.2595 34.1443C41.3412 34.4306 41.4639 34.5533 41.6275 34.7986C41.8319 35.0849 41.8728 35.1666 42.0773 35.4529C43.7538 37.4157 46.1255 38.8469 48.4972 39.9918C48.947 40.2372 49.4377 40.4825 49.9693 40.687C50.3374 40.8505 51.1961 41.1368 51.4823 41.3003C51.4823 41.7093 51.2779 42.5271 51.1552 43.0178C50.7872 44.817 50.5418 46.4936 50.3374 48.3746C50.1738 49.6831 50.1329 50.9098 50.0102 52.2184C49.9284 53.3633 50.092 55.2034 49.9284 56.2257C49.1106 56.0622 47.8839 55.4897 47.1478 55.1217C42.936 53.0771 43.0178 52.5455 40.0327 50.5827C40.0327 51.1961 40.8914 51.8094 41.3004 52.0957L42.1591 52.7908C42.8542 53.4042 43.7947 54.222 44.5308 54.7127C45.5122 55.3261 45.9211 55.735 47.1478 56.3893L50.0102 57.8205C50.0511 59.5788 50.46 63.6271 50.6645 65.4263C50.9916 68.0842 51.4005 69.8835 51.9321 72.4187L50.9098 72.1325C51.1143 72.5823 51.9321 72.6232 52.1366 73.0321C52.2593 73.3183 52.5046 74.2588 52.6273 74.6269C54.1812 79.1658 55.735 81.5784 58.2703 85.4222L63.2182 91.8013C63.3817 91.9648 63.5862 92.0057 63.7089 92.2102C63.7497 91.8422 63.2999 91.4332 63.1364 91.147C62.4821 90.1656 61.7461 89.1433 61.2145 88.0801C60.8465 87.385 60.3966 86.6489 59.9877 85.9538C59.2108 84.4408 58.4339 83.0505 57.7387 81.4966C57.3707 80.6788 57.0436 79.9427 56.7573 79.1249C56.2257 77.5302 55.5306 75.69 55.0808 74.0544L57.7387 74.7495C64.036 76.3852 69.0247 76.9168 75.5674 76.1398C76.1807 76.0581 78.0209 75.69 78.4707 75.7718C78.6342 76.0581 78.7978 76.3443 78.9205 76.5897C78.1844 76.6714 77.2848 76.9168 76.467 77.0395C74.7904 77.2848 73.073 77.5302 71.3147 77.6119C70.824 77.6119 70.3742 77.6528 69.8835 77.6119C69.5563 77.6119 68.7794 77.4484 68.534 77.6937C69.0247 78.0209 73.1957 78.0617 74.1362 77.98C74.9949 77.9391 76.0581 77.8573 76.8759 77.8164C77.7346 77.7346 78.6751 77.5711 79.4929 77.5302C79.861 77.6119 82.0691 81.4557 83.0096 81.742C82.6416 80.8424 82.0691 80.229 81.6602 79.4929L80.2699 77.4075C83.3776 76.7532 85.504 76.3034 88.4891 75.1176C89.3478 74.7904 90.0429 74.4224 90.8608 74.0953C92.8644 73.2366 94.6228 72.0507 96.5038 70.9466C97.158 70.5377 98.9982 68.943 99.5706 68.7794C99.6524 69.9652 99.8978 71.3556 99.9796 72.6232C100.061 73.8499 100.266 75.2402 100.266 76.5079C100.838 76.467 101.165 76.099 101.493 75.8536C102.351 75.1176 102.883 75.1993 102.965 74.4633C103.169 72.6232 103.578 70.7422 103.864 68.9021C104.028 68.0024 104.314 66.6121 104.314 65.7534C104.478 65.549 104.6 65.549 104.846 65.4263C106.727 64.3222 109.18 62.2368 110.693 60.6829C111.634 59.7424 114.537 56.5937 112.288 55.9395C109.589 55.1625 105.704 58.6792 103.823 60.1513C103.537 60.3558 101.206 62.2776 101.043 62.3185C100.797 62.3594 97.0763 61.8687 96.7491 61.8278C95.8086 61.6643 94.9499 61.5007 94.0094 61.3372C93.3551 61.2145 91.8013 60.9282 91.1879 61.0509C90.6563 61.1736 89.5522 62.0323 89.4705 62.4821L93.2325 64.0769C94.1321 64.4858 96.1358 65.4263 97.0763 65.5899C96.8309 65.9988 95.5633 66.9393 95.1544 67.2255C94.7863 67.4709 93.4778 68.534 93.1507 68.6158C92.5782 68.7794 92.3329 68.2478 91.6786 68.4931C91.147 68.6976 89.0615 70.0879 88.4891 70.415C86.0765 71.8871 81.4557 73.9726 78.5524 74.4224C78.4707 74.1362 78.3071 73.8499 78.1435 73.5637C77.9391 73.2366 77.8982 73.073 77.7755 72.705C77.6119 72.1734 77.3257 71.5191 77.0804 70.9875C76.6305 69.8835 76.099 68.7385 75.6492 67.6344C75.2402 66.5713 73.441 61.6643 73.5228 60.3149C73.5228 60.1513 76.6305 59.7833 77.0395 59.7015C78.1435 59.497 79.2885 59.2517 80.3108 58.9654C85.0542 57.7387 90.9017 55.4079 94.909 52.4228C95.8904 51.6868 96.7491 50.8689 97.6896 50.1738C98.5483 49.5195 99.9387 48.1701 100.716 47.6385C101.002 47.475 101.165 47.1069 101.411 46.8616C101.615 46.6162 101.656 46.5753 101.901 46.3709C102.597 45.7575 103.169 44.9806 103.782 44.2445C105.336 42.4044 106.727 40.4007 107.872 38.2744L109.221 35.6164C109.589 34.9213 110.162 33.4901 110.366 32.6723L110.243 32.8358C109.794 33.3674 107.708 37.0885 107.381 37.661C106.808 38.6424 106.031 39.5829 105.336 40.5234L104.028 42.1182C102.515 44.0401 99.9387 46.2482 97.935 47.8021C97.1989 48.3746 96.5447 48.9879 95.7677 49.5195C95.3588 49.7649 94.9908 50.0511 94.5819 50.3374C94.2139 50.5827 93.7641 50.8689 93.396 51.1143C90.8199 52.6682 88.2846 53.7722 85.3813 54.7945C84.1137 55.2443 74.9131 57.9841 73.073 57.8614C72.9094 57.8614 72.9912 57.8614 72.9094 57.8205C72.0507 56.5528 71.6009 45.5531 71.9689 43.2631C72.5823 43.2631 73.2366 43.1405 73.8499 43.0587C77.6528 42.5271 81.9464 41.5866 85.4222 40.1554C87.7939 39.174 90.2065 38.1517 92.4146 36.8023C94.0094 35.8209 95.5224 34.7986 96.9945 33.6537C97.8532 32.9585 98.671 32.1816 99.448 31.4455C100.307 30.6277 100.756 30.505 101.533 29.4418C101.82 29.0738 102.229 28.7467 102.515 28.3787C102.842 28.0106 103.169 27.6835 103.496 27.2746L104.355 26.1296C104.519 25.9252 104.6 25.7616 104.805 25.5163C105.377 24.6984 105.991 23.8806 106.522 23.0628L108.362 19.7915C108.608 19.3008 108.812 18.8918 109.057 18.4011L110.284 15.5796C110.039 15.6614 108.894 17.7878 108.771 17.9922C107.626 20.0777 106.931 20.9364 105.623 22.7356C104.6 24.1668 102.269 26.9883 101.002 28.0924L99.6933 29.2374C99.5706 29.3192 99.5297 29.4009 99.4071 29.4827L95.5224 32.4678C91.9239 35.2075 86.24 37.4974 81.9873 38.806C79.3294 39.6238 76.6714 40.1963 73.9317 40.6461C73.441 40.7279 72.6641 40.8505 72.1734 40.8505C72.2552 40.4416 72.2961 39.9509 72.3369 39.542C72.6641 36.7614 73.3183 33.9808 73.9726 31.2819C74.3406 29.8099 74.8722 28.3787 75.3629 26.9883C76.7532 22.981 78.716 19.1781 80.9241 15.5796C82.3962 13.2079 83.991 11.0407 85.7084 9.03701C85.8311 8.87344 85.9129 8.75077 86.0356 8.62809L89.8794 4.70251C90.4927 4.08914 90.5745 3.68023 91.7195 3.8029C96.5447 4.2936 101.206 5.27499 105.582 6.95154C108.894 8.21918 112.165 9.65038 115.191 11.4905L116.949 12.5946C118.34 13.6168 119.73 14.4756 121.08 15.5796C121.284 15.7432 121.693 16.0294 121.897 16.193C124.187 18.1149 126.395 20.2004 128.399 22.4494L129.053 23.2263C129.953 24.2486 130.853 25.1891 131.63 26.2932C131.998 26.8248 132.406 27.3564 132.815 27.9289C134.001 29.5236 135.105 31.4046 136.128 33.1221C138.009 36.3116 140.176 41.6275 141.116 45.1033C142.22 49.1515 143.243 54.0176 143.447 58.393C143.488 59.7015 143.611 61.0509 143.611 62.4003C143.611 63.1773 143.611 64.3631 143.529 65.1401C143.284 67.7162 143.161 70.2106 142.629 72.7459C142.507 73.3183 142.22 74.6678 142.261 75.1993C143.488 74.4224 144.469 68.4114 144.797 65.6716C145.451 60.4784 144.469 49.3969 143.243 44.449C142.466 41.2595 141.035 37.0476 139.644 34.0217C139.031 32.3042 138.213 30.7912 137.395 29.2783C137.15 28.8694 136.945 28.5422 136.741 28.1333C136.577 27.8062 136.332 27.3973 136.128 27.0701C135.392 25.8843 133.429 23.0628 132.447 21.9587L130.076 19.0963C129.708 18.7692 129.503 18.5238 129.217 18.1558C128.89 17.7878 128.685 17.5833 128.399 17.2971L124.719 13.9031C123.165 12.5537 122.265 11.9812 120.793 10.8362C119.607 9.93662 115.559 7.36046 114.373 6.74709C108.771 3.84379 102.31 1.55387 95.8904 0.613371C94.909 0.449806 93.8049 0.327131 92.7827 0.245349C92.3329 0.204457 89.6749 0.0817829 89.5113 0H83.991C83.8274 0.0817829 81.1695 0.204457 80.6788 0.28624C79.6156 0.408914 78.6342 0.531589 77.6119 0.695154C73.8908 1.26763 69.9652 2.41259 66.4895 3.68023C65.2627 4.13003 62.8501 5.11143 61.5825 5.76569C60.7647 6.17461 59.9877 6.54263 59.2108 6.99243C57.6569 7.85116 55.2852 9.32325 53.8131 10.3864C53.486 10.6318 53.1589 10.8362 52.7908 11.0816L48.9062 14.1893C48.2519 14.68 47.5976 15.3343 47.066 15.8659C45.594 17.338 44.081 18.8101 42.7724 20.4457C42.0364 21.3862 41.5457 21.9178 40.8505 22.8992C40.7279 23.0628 40.6052 23.1854 40.4825 23.349C39.174 25.0664 38.0699 26.7839 36.925 28.6649C33.9399 33.531 30.6686 42.2408 29.8916 47.9248C29.769 48.947 29.6054 50.0102 29.4418 50.9916C29.2783 52.1366 29.1556 52.9544 29.0738 54.0994C29.0738 54.5901 29.0738 57.2071 28.9511 57.4116ZM55.4079 40.5643C55.4897 39.174 57.2889 35.0031 57.9841 33.4492L59.2517 30.8321C59.4561 30.3823 59.7015 29.9734 59.906 29.5645C60.5602 28.1742 61.9096 25.9661 62.7684 24.6575C63.9133 22.8992 64.2813 22.5721 65.5081 21.0591L66.1214 20.323C66.4486 19.955 66.7348 19.6688 67.062 19.3008L69.3519 16.7246C70.1697 15.7841 72.5414 13.8213 72.8276 13.4124L77.1621 10.0593C77.5302 9.77305 77.8982 9.5277 78.3071 9.24146C79.084 8.70988 82.2327 6.62441 83.1732 6.37906C83.0096 6.7062 82.7234 6.99243 82.478 7.27867C81.2513 8.75077 80.3108 10.1002 79.2476 11.6132C75.4856 16.8064 72.4596 24.3304 71.0284 30.5868C70.6195 32.3042 70.3333 33.899 70.047 35.6164C69.8017 37.0476 69.5563 40.3598 69.3928 41.0141C68.943 41.1368 67.8798 41.3003 67.43 41.3003L65.4263 41.3412C64.2813 41.423 60.9282 41.2186 59.8242 41.055L55.4079 40.5643ZM52.9135 57.1253C52.9135 54.3038 53.0771 51.8503 53.4451 49.2742C53.6496 47.6794 54.0176 45.5122 54.3856 43.9992C54.4674 43.7538 54.7127 42.4862 54.9172 42.4044C55.2034 42.3226 57.6569 42.936 58.2703 43.0587C60.274 43.4267 63.4635 43.6312 65.5081 43.6312C66.8166 43.6312 68.0025 43.5494 69.1883 43.6312C69.311 46.2891 69.311 48.9062 69.6381 51.3596C70.824 59.4561 71.6009 58.1067 69.679 58.3112C67.7162 58.5156 63.1364 58.5974 61.378 58.5156C58.6383 58.393 55.5715 57.9432 52.9135 57.1253ZM52.9135 58.9654C53.3633 59.0063 54.5083 59.3335 54.999 59.4561C58.3112 60.3966 63.0955 61.0918 66.4895 60.8465C67.3482 60.8056 68.1251 60.7647 69.0247 60.7238C69.8017 60.6829 70.7422 60.6011 71.56 60.6829L72.8685 64.3631C73.073 64.9765 73.3183 65.5899 73.5637 66.2032C73.809 66.8166 74.0544 67.43 74.2997 68.0025C75.1993 70.0879 75.8536 71.1511 76.835 73.073C77.1212 73.6046 77.4893 74.1362 77.7346 74.7086C77.203 75.0358 74.0953 75.3629 73.1957 75.4856C67.1846 76.0581 61.2554 75.4447 55.6124 73.6455C55.1217 73.4819 54.9581 73.5637 54.8354 73.073C54.0585 69.8426 53.6905 67.3073 53.2815 64.0769C53.118 62.4003 52.9135 60.6011 52.9135 58.9654ZM79.7792 76.4261C79.6565 76.2216 79.3703 75.8127 79.3294 75.5674C81.8647 74.8722 82.9278 74.7495 85.5858 73.6455C86.5263 73.2366 87.4668 72.7868 88.4073 72.3778C89.3478 71.9689 89.7567 71.4373 90.6563 71.5191C91.147 71.56 91.2288 71.6009 91.1879 72.0098C90.9017 72.1325 90.7381 72.1325 90.5336 72.2552C90.3701 72.3778 90.2065 72.5414 90.002 72.6641L87.3441 74.0544C84.6862 75.1585 82.7643 75.8945 79.7792 76.4261Z" fill="white"/>
</g>
<defs>
<clipPath id="clip0_2_41">
<rect width="168.35" height="200" fill="white"/>
</clipPath>
</defs>
</svg>
