<svg width="49" height="40" viewBox="0 0 49 40" fill="none" xmlns="http://www.w3.org/2000/svg">
<path fill-rule="evenodd" clip-rule="evenodd" d="M0 24.1195V24.8924C0.0878349 25.0856 0.140536 26.8599 0.193237 27.2815C0.439174 29.2666 1.01888 31.6557 1.79183 33.4827C2.1783 34.3961 2.54721 35.2745 3.03909 36.1353C3.30259 36.592 3.7242 37.3298 4.00527 37.769L5.6917 40H5.7444C5.5336 39.5784 5.25252 39.1919 5.02415 38.7879C4.90119 38.5946 4.76065 38.3838 4.63768 38.1906C4.0404 37.2596 3.42556 35.942 3.03909 34.9231C2.30127 32.9556 1.72156 31.0233 1.44049 28.7396C1.14185 26.2978 1.15942 23.856 1.54589 21.4668C1.8094 19.8331 2.23101 18.3575 2.79315 16.8467C2.88098 16.6184 2.96882 16.39 3.07422 16.1616C3.35529 15.5116 3.65393 14.7914 4.00527 14.1765C4.12824 13.9657 4.23364 13.7374 4.35661 13.5266C4.58498 13.1225 4.81335 12.7009 5.07686 12.2969L5.65657 11.4185C5.7444 11.2956 5.77953 11.2253 5.86737 11.1199C6.14844 10.7686 6.42951 10.3645 6.72815 10.0307L7.16733 9.50373C7.8173 8.83619 8.41458 8.15108 9.11726 7.53623C9.60913 7.11462 10.1888 6.57005 10.6983 6.21871C11.278 5.81467 11.8226 5.39306 12.4374 5.04172L14.3171 3.9877L15.6697 3.39043C15.8805 3.30259 16.1265 3.19719 16.3549 3.10935C16.8467 2.91612 17.321 2.75801 17.8129 2.61748C18.5507 2.38911 19.3764 2.1783 20.1493 2.03777C20.3074 2.00264 20.448 1.98507 20.5885 1.9675C20.7115 1.94993 20.8696 1.94993 20.975 1.9148C20.6763 2.14317 20.325 2.33641 19.9736 2.54721C19.6399 2.74045 19.3061 2.98639 18.9723 3.19719L18.2521 3.7242C18.217 3.75933 18.1642 3.79447 18.1291 3.8296C17.7953 4.07554 17.4616 4.39174 17.1629 4.69038C17.0575 4.79578 17.0224 4.79578 16.917 4.88362L16.0386 5.65657C15.8805 5.7971 15.7927 5.93764 15.6522 6.07817L14.1414 7.78217C14.0887 7.83487 14.0887 7.85244 14.0536 7.90514L13.2631 8.95916C12.9117 9.43347 12.5955 9.96047 12.2793 10.4699C11.9631 10.9618 11.3483 12.0509 11.1199 12.578C11.0321 12.7712 10.9618 12.9293 10.874 13.1401C10.5402 13.913 10.2591 14.7211 9.97804 15.5292C9.85507 15.8981 9.76724 16.3197 9.59157 16.6535C9.574 16.6886 9.574 16.6886 9.55643 16.7238C8.66052 16.6711 7.29029 15.9684 6.57005 15.4765C6.23628 15.2481 5.9025 15.0198 5.60386 14.7738C5.49846 14.686 5.25252 14.4401 5.14712 14.4401C5.18226 14.563 5.23496 14.6157 5.30523 14.7036C5.39306 14.809 5.41063 14.8617 5.49846 14.9671C6.20114 15.7927 7.18489 16.3724 8.16864 16.8467C8.36188 16.9346 8.57268 17.0575 8.78349 17.1278C8.94159 17.1805 9.29293 17.3035 9.4159 17.3913C9.4159 17.567 9.32806 17.9007 9.27536 18.1116C9.13483 18.8669 9.02942 19.5696 8.92402 20.3426C8.85375 20.8871 8.83619 21.3966 8.78349 21.9412C8.74835 22.4155 8.81862 23.1708 8.74835 23.61C8.41458 23.5573 7.90514 23.2938 7.58893 23.1533C5.83224 22.3101 5.86737 22.0817 4.62011 21.2736C4.62011 21.5195 4.97145 21.783 5.14712 21.906L5.49846 22.2047C5.77953 22.4506 6.16601 22.8019 6.49978 23.0127C6.90382 23.2762 7.07949 23.4343 7.58893 23.7154L8.78349 24.3127C8.80105 25.0505 8.95916 26.7369 9.06456 27.4747C9.20509 28.5815 9.3632 29.3193 9.59157 30.3733L9.15239 30.2503C9.24023 30.4436 9.574 30.4611 9.66183 30.6368C9.71454 30.7598 9.81994 31.1462 9.87264 31.3043C10.5226 33.2016 11.1726 34.2029 12.2266 35.8015L14.2819 38.4541C14.3522 38.5244 14.4401 38.5419 14.4928 38.6298C14.5103 38.4717 14.3347 38.296 14.2468 38.1906C13.9657 37.7866 13.6671 37.3474 13.4387 36.9082C13.2806 36.6096 13.0874 36.3109 12.9293 36.0123C12.5955 35.3975 12.2793 34.8002 11.9982 34.1502C11.8401 33.8164 11.7172 33.5002 11.5942 33.1489C11.3834 32.4813 11.0848 31.726 10.8915 31.0408L11.9982 31.3395C14.6157 32.0246 16.7062 32.2354 19.4291 31.9192C19.6926 31.8841 20.448 31.7435 20.6412 31.7611C20.7115 31.8841 20.7817 31.9895 20.8344 32.0949C20.5358 32.13 20.1493 32.2354 19.8155 32.2881C19.1129 32.3759 18.3926 32.4989 17.6724 32.5165C17.4791 32.5165 17.2859 32.534 17.0751 32.5165C16.9346 32.5165 16.6184 32.4462 16.513 32.5516C16.7238 32.6921 18.4453 32.6921 18.8318 32.6746C19.1831 32.657 19.6223 32.6219 19.9736 32.6043C20.325 32.5867 20.729 32.4989 21.0628 32.4813C21.2209 32.5165 22.1344 34.1151 22.5209 34.238C22.3803 33.8691 22.1344 33.6056 21.9587 33.307L21.379 32.4462C22.679 32.1651 23.5573 31.9895 24.8046 31.4976C25.1735 31.357 25.4545 31.2165 25.8059 31.0584C26.6315 30.7071 27.3693 30.2152 28.1599 29.7409C28.4234 29.5828 29.1963 28.9152 29.4247 28.845C29.4598 29.3368 29.5476 29.9166 29.6003 30.4436C29.6355 30.953 29.7233 31.5327 29.7233 32.0597C29.9517 32.0422 30.1098 31.9016 30.2328 31.7787C30.6017 31.48 30.8125 31.5152 30.8476 31.1989C30.9354 30.426 31.0935 29.6531 31.2341 28.8801C31.3043 28.5112 31.4273 27.9315 31.4273 27.5626C31.48 27.4747 31.5503 27.4747 31.6381 27.422C32.4286 26.9653 33.4475 26.087 34.0799 25.4545C34.4664 25.0681 35.6785 23.7505 34.7475 23.487C33.6232 23.1533 32.007 24.6289 31.2165 25.2437C31.0935 25.3316 30.1274 26.1397 30.0571 26.1397C29.9693 26.1572 28.4058 25.9464 28.2653 25.9289C27.8788 25.8762 27.5099 25.7883 27.1234 25.7181C26.8423 25.6653 26.1924 25.5424 25.9464 25.5951C25.718 25.6478 25.2613 25.9991 25.2262 26.1924L26.7896 26.8599C27.1761 27.0356 28.0018 27.422 28.3882 27.4923C28.2828 27.668 27.7558 28.0545 27.5801 28.1774C27.4396 28.2828 26.895 28.722 26.7369 28.7571C26.5086 28.8274 26.4032 28.6166 26.1221 28.7044C25.8937 28.7923 25.0329 29.372 24.787 29.5125C23.7857 30.1274 21.8533 30.9881 20.6588 31.1814C20.6236 31.0584 20.5534 30.9354 20.4831 30.83C20.3953 30.6895 20.3953 30.6368 20.3426 30.4787C20.2723 30.2503 20.1493 29.9868 20.0615 29.776C19.8682 29.3193 19.6574 28.845 19.4818 28.3707C19.3061 27.9315 18.5683 25.8762 18.6034 25.314C18.6034 25.2437 19.9034 25.0856 20.0791 25.0505C20.5358 24.9627 21.0101 24.8573 21.4493 24.7519C23.4343 24.2424 25.8586 23.2587 27.5274 22.029C27.9315 21.7303 28.3004 21.3966 28.6869 21.0804C29.0382 20.7993 29.6179 20.2372 29.9517 20.0264C30.0571 19.9561 30.1449 19.798 30.2328 19.6926C30.3206 19.6047 30.3382 19.5696 30.426 19.4818C30.7246 19.2358 30.953 18.9021 31.2165 18.5859C31.8489 17.8305 32.4286 16.9873 32.9205 16.1089L33.4827 15.0022C33.6408 14.7211 33.8691 14.1063 33.957 13.7725L33.9043 13.8252C33.711 14.0536 32.8502 15.5995 32.7097 15.8454C32.4638 16.267 32.1476 16.6535 31.8665 17.04L31.3219 17.7075C30.6895 18.5156 29.6179 19.4291 28.7923 20.0791C28.4761 20.325 28.2301 20.5709 27.8788 20.7817C27.7207 20.8871 27.5626 20.9925 27.3869 21.1155C27.2464 21.2209 27.0531 21.3439 26.895 21.4317C25.8235 22.0641 24.7694 22.5384 23.5573 22.96C23.0303 23.1357 19.1831 24.2776 18.4278 24.2424C18.3575 24.2424 18.3926 24.2424 18.3575 24.2249C18.0061 23.6978 17.8129 19.1129 17.971 18.1643C18.2345 18.1643 18.498 18.1116 18.744 18.0764C20.325 17.8656 22.1168 17.4616 23.5573 16.8643C24.5411 16.4603 25.5424 16.0211 26.4734 15.4589C27.141 15.0549 27.7734 14.6157 28.3882 14.1414C28.7396 13.8603 29.0909 13.5266 29.4247 13.2104C29.7936 12.859 29.9693 12.8239 30.2855 12.3672C30.4084 12.209 30.5665 12.0685 30.7071 11.9104C30.8476 11.7523 30.9881 11.6118 31.1287 11.4537L31.4976 10.9794C31.5679 10.8915 31.603 10.8213 31.6733 10.7159C31.9192 10.3645 32.1651 10.0307 32.3759 9.6794L33.1489 8.30918C33.2543 8.09838 33.3421 7.94027 33.4475 7.72947L33.957 6.55248C33.8516 6.58762 33.3772 7.46596 33.3245 7.5538C32.8502 8.41458 32.5516 8.78349 32.0246 9.53887C31.603 10.1361 30.6192 11.3131 30.0922 11.7699L29.5476 12.2442C29.4949 12.2793 29.4774 12.3144 29.4247 12.3496L27.8085 13.5793C26.3153 14.7211 23.9438 15.6873 22.1695 16.2143C21.0628 16.5481 19.9561 16.794 18.8142 16.9697C18.6034 17.0048 18.2872 17.0575 18.0764 17.0575C18.1115 16.8819 18.1291 16.6886 18.1467 16.513C18.2872 15.3535 18.5507 14.1941 18.8318 13.0698C18.9899 12.455 19.2007 11.8577 19.4115 11.278C19.9912 9.60913 20.7993 8.02811 21.7303 6.53491C22.3452 5.55116 22.9952 4.65525 23.7154 3.81203C23.7681 3.74177 23.8032 3.68906 23.8384 3.63636L25.437 2.00264C25.6829 1.7567 25.7181 1.58103 26.1924 1.61616C28.195 1.8094 30.1449 2.23101 31.9719 2.91612C33.3421 3.44313 34.7123 4.0404 35.9772 4.81335L36.6974 5.27009C37.2771 5.6917 37.8568 6.06061 38.419 6.49978C38.5068 6.57005 38.6649 6.69302 38.7527 6.74572C39.7189 7.5538 40.6324 8.41458 41.4581 9.34563L41.7216 9.66184C42.0905 10.0834 42.4769 10.4875 42.7931 10.9442C42.9512 11.155 43.1094 11.3834 43.285 11.6293C43.7769 12.2969 44.2336 13.0698 44.6552 13.7901C45.4282 15.1252 46.3417 17.3386 46.7281 18.7791C47.1849 20.4655 47.6241 22.4857 47.6943 24.3127C47.7119 24.8573 47.7646 25.4194 47.7646 25.9816C47.7646 26.2978 47.7646 26.8072 47.7295 27.1234C47.6241 28.195 47.5714 29.2314 47.3606 30.2855C47.3079 30.5138 47.1849 31.0935 47.2025 31.3043C47.7119 30.9881 48.1159 28.4761 48.2565 27.3342C48.5375 25.1735 48.1159 20.5534 47.6065 18.498C47.2727 17.1805 46.6754 15.4062 46.1133 14.159C45.7971 13.4739 45.4458 12.8415 45.112 12.209C45.0242 12.0334 44.9188 11.8928 44.8309 11.7347C44.7607 11.5942 44.6552 11.4361 44.5674 11.278C44.2512 10.7861 43.4431 9.60913 43.0391 9.15239L42.0553 7.97541C41.8972 7.83487 41.827 7.72947 41.704 7.58893C41.581 7.4484 41.4932 7.36056 41.3527 7.22003L39.8243 5.7971C39.1744 5.23496 38.8054 4.98902 38.1906 4.51471C37.6987 4.14581 36.0123 3.05665 35.5204 2.81072C33.184 1.59859 30.4963 0.649978 27.8261 0.263505C27.422 0.210804 26.9477 0.140536 26.5261 0.105402C26.3329 0.0878349 25.2437 0.035134 25.1735 0H22.9249C22.8546 0.035134 21.7479 0.0878349 21.5547 0.105402C21.1155 0.158103 20.7115 0.210804 20.2723 0.281072C18.7264 0.527009 17.0927 1.00132 15.6522 1.52833C15.1427 1.72156 14.1414 2.1256 13.5968 2.38911C13.2455 2.56478 12.9469 2.72288 12.6131 2.89855C11.9631 3.24989 10.9794 3.86473 10.3645 4.32148C10.224 4.42688 10.0834 4.51471 9.94291 4.62011L8.32675 5.92007C8.06324 6.13087 7.78217 6.39438 7.5538 6.62275C6.93895 7.23759 6.32411 7.85244 5.76197 8.51998C5.44576 8.90646 5.25252 9.13483 4.95389 9.53887C4.90119 9.60913 4.84848 9.66184 4.81335 9.7321C4.26877 10.4523 3.79447 11.1726 3.32016 11.9455C2.09047 14.1414 0.737813 17.7778 0.40404 20.1318C0.351339 20.5534 0.281072 20.9925 0.228371 21.4141C0.158103 21.8885 0.122969 22.2398 0.0702679 22.7141C0.0527009 22.9425 0.0527009 24.0141 0 24.1195ZM11.0145 17.1102C11.0496 16.5305 11.805 14.7914 12.0861 14.159L12.6131 13.0698C12.7009 12.8942 12.8063 12.7185 12.8942 12.5428C13.1752 11.9631 13.7198 11.0496 14.0887 10.5051C14.563 9.76724 14.7036 9.6267 15.2306 9.01186L15.4765 8.69565C15.5995 8.55512 15.7224 8.43215 15.863 8.27404L16.8116 7.20246C17.1454 6.81599 18.1467 5.99034 18.2521 5.83224L20.0615 4.44444C20.2196 4.33904 20.3777 4.21607 20.5358 4.11067C20.8696 3.8823 22.1695 3.02152 22.556 2.93368C22.4857 3.07422 22.3628 3.19719 22.2574 3.30259C21.7303 3.91744 21.3614 4.47958 20.9047 5.11199C19.3412 7.27273 18.0764 10.3996 17.4791 13.0171C17.321 13.7374 17.1981 14.4049 17.0751 15.1252C16.9697 15.7224 16.8643 17.0927 16.8116 17.3737C16.6359 17.4264 16.1792 17.4791 15.9859 17.4791L15.1427 17.4967C14.6684 17.4967 13.2631 17.4089 12.8063 17.3562L11.0145 17.1102ZM9.99561 23.9965C9.99561 22.8371 10.0659 21.8006 10.2064 20.729C10.2942 20.0615 10.4523 19.1656 10.6105 18.5332C10.6456 18.4278 10.751 17.9007 10.8388 17.8656C10.9442 17.8305 11.9807 18.094 12.2266 18.1291C13.0698 18.2872 14.3874 18.3751 15.2306 18.3751C15.7751 18.3751 16.267 18.3399 16.7765 18.3751C16.8292 19.4818 16.8292 20.5709 16.9697 21.5898C17.4616 24.9627 17.7778 24.4005 16.9873 24.4884C16.1616 24.5762 14.2644 24.6113 13.5266 24.5762C12.3671 24.5235 11.0848 24.3303 9.99561 23.9965ZM9.99561 24.7519C10.1888 24.7694 10.6632 24.8924 10.8564 24.9627C12.2266 25.3491 14.2292 25.6478 15.6522 25.5424C16.0035 25.5248 16.3373 25.5072 16.7062 25.4897C17.04 25.4721 17.4089 25.437 17.7602 25.4721L18.3048 27.0004C18.3926 27.2639 18.498 27.5099 18.6034 27.7558C18.7088 28.0193 18.7967 28.2653 18.9021 28.5112C19.2885 29.372 19.552 29.8287 19.9561 30.6192C20.0791 30.8476 20.2372 31.0584 20.3426 31.2868C20.1142 31.4273 18.8318 31.5679 18.4453 31.603C15.9332 31.8489 13.4739 31.5854 11.1199 30.83C10.9267 30.7598 10.8564 30.7949 10.8037 30.5841C10.4875 29.249 10.3294 28.195 10.1537 26.8248C10.0659 26.1924 9.99561 25.437 9.99561 24.7519ZM21.1858 32.0422C21.1331 31.9543 21.0277 31.7787 20.9925 31.6908C22.0466 31.3922 22.5033 31.357 23.5924 30.8827C23.9965 30.7071 24.383 30.5314 24.7694 30.3557C25.1559 30.1801 25.3316 29.9517 25.7005 29.9868C25.8937 30.0044 25.9464 30.022 25.9289 30.1976C25.8059 30.2503 25.7532 30.2328 25.6478 30.303C25.5775 30.3557 25.5072 30.426 25.4194 30.4787L24.3127 31.0584C23.206 31.4976 22.4155 31.7962 21.1858 32.0422Z" fill="white"/>
</svg>
